<svg width="64" height="64" viewBox="0 0 64 64" fill="none" xmlns="http://www.w3.org/2000/svg">
<path d="M0 32C0 49.6731 14.3269 64 32 64C49.6731 64 64 49.6731 64 32C64 14.3269 49.6731 0 32 0C14.3269 0 0 14.3269 0 32Z" fill="#11111A"/>
<path d="M22.7288 17.5195C23.9518 15.0855 26.2402 13.2053 28.8654 12.4778C31.4905 11.7504 34.4202 12.1845 36.7216 13.6419C39.023 15.0993 40.668 17.5622 41.1327 20.2463V20.2463C41.5973 22.9304 40.876 25.803 39.1984 27.9493C38.2255 29.194 36.9604 30.1844 35.6146 31.012C34.2491 31.8516 32.7965 32.5384 31.3566 33.243C29.9269 33.9425 28.5033 34.6709 27.2087 35.5969L27.2087 35.5969C25.9142 36.5228 24.7452 37.6584 23.9506 39.0374C23.0288 40.6372 22.6445 42.542 22.8738 44.374C23.1031 46.206 23.9451 47.9573 25.2327 49.2805L25.2327 49.2805C26.5203 50.6037 28.248 51.4931 30.0731 51.7722C31.8982 52.0514 33.8127 51.7191 35.437 50.8412" fill="#D2DAD9"/>
</svg>
